Point(1) = {0.0500, 0.0000, 0, 1.0};
//+
Point(2) = {0.0499, 0.0031, 0, 1.0};
//+
Point(3) = {0.0496, 0.0063, 0, 1.0};
//+
Point(4) = {0.0491, 0.0094, 0, 1.0};
//+
Point(5) = {0.0484, 0.0124, 0, 1.0};
//+
Point(6) = {0.0476, 0.0155, 0, 1.0};
//+
Point(7) = {0.0465, 0.0184, 0, 1.0};
//+
Point(8) = {0.0452, 0.0213, 0, 1.0};
//+
Point(9) = {0.0438, 0.0241, 0, 1.0};
//+
Point(10) = {0.0422, 0.0268, 0, 1.0};
//+
Point(11) = {0.0405, 0.0294, 0, 1.0};
//+
Point(12) = {0.0385, 0.0319, 0, 1.0};
//+
Point(13) = {0.0364, 0.0342, 0, 1.0};
//+
Point(14) = {0.0342, 0.0364, 0, 1.0};
//+
Point(15) = {0.0319, 0.0385, 0, 1.0};
//+
Point(16) = {0.0294, 0.0405, 0, 1.0};
//+
Point(17) = {0.0268, 0.0422, 0, 1.0};
//+
Point(18) = {0.0241, 0.0438, 0, 1.0};
//+
Point(19) = {0.0213, 0.0452, 0, 1.0};
//+
Point(20) = {0.0184, 0.0465, 0, 1.0};
//+
Point(21) = {0.0155, 0.0476, 0, 1.0};
//+
Point(22) = {0.0124, 0.0484, 0, 1.0};
//+
Point(23) = {0.0094, 0.0491, 0, 1.0};
//+
Point(24) = {0.0063, 0.0496, 0, 1.0};
//+
Point(25) = {0.0031, 0.0499, 0, 1.0};
//+
Point(26) = {-0.0000, 0.0500, 0, 1.0};
//+
Point(27) = {-0.0031, 0.0499, 0, 1.0};
//+
Point(28) = {-0.0063, 0.0496, 0, 1.0};
//+
Point(29) = {-0.0094, 0.0491, 0, 1.0};
//+
Point(30) = {-0.0124, 0.0484, 0, 1.0};
//+
Point(31) = {-0.0155, 0.0476, 0, 1.0};
//+
Point(32) = {-0.0184, 0.0465, 0, 1.0};
//+
Point(33) = {-0.0213, 0.0452, 0, 1.0};
//+
Point(34) = {-0.0241, 0.0438, 0, 1.0};
//+
Point(35) = {-0.0268, 0.0422, 0, 1.0};
//+
Point(36) = {-0.0294, 0.0405, 0, 1.0};
//+
Point(37) = {-0.0319, 0.0385, 0, 1.0};
//+
Point(38) = {-0.0342, 0.0364, 0, 1.0};
//+
Point(39) = {-0.0364, 0.0342, 0, 1.0};
//+
Point(40) = {-0.0385, 0.0319, 0, 1.0};
//+
Point(41) = {-0.0405, 0.0294, 0, 1.0};
//+
Point(42) = {-0.0422, 0.0268, 0, 1.0};
//+
Point(43) = {-0.0438, 0.0241, 0, 1.0};
//+
Point(44) = {-0.0452, 0.0213, 0, 1.0};
//+
Point(45) = {-0.0465, 0.0184, 0, 1.0};
//+
Point(46) = {-0.0476, 0.0155, 0, 1.0};
//+
Point(47) = {-0.0484, 0.0124, 0, 1.0};
//+
Point(48) = {-0.0491, 0.0094, 0, 1.0};
//+
Point(49) = {-0.0496, 0.0063, 0, 1.0};
//+
Point(50) = {-0.0499, 0.0031, 0, 1.0};
//+
Point(51) = {-0.0500, -0.0000, 0, 1.0};
//+
Point(52) = {-0.0499, -0.0031, 0, 1.0};
//+
Point(53) = {-0.0496, -0.0063, 0, 1.0};
//+
Point(54) = {-0.0491, -0.0094, 0, 1.0};
//+
Point(55) = {-0.0484, -0.0124, 0, 1.0};
//+
Point(56) = {-0.0476, -0.0155, 0, 1.0};
//+
Point(57) = {-0.0465, -0.0184, 0, 1.0};
//+
Point(58) = {-0.0452, -0.0213, 0, 1.0};
//+
Point(59) = {-0.0438, -0.0241, 0, 1.0};
//+
Point(60) = {-0.0422, -0.0268, 0, 1.0};
//+
Point(61) = {-0.0405, -0.0294, 0, 1.0};
//+
Point(62) = {-0.0385, -0.0319, 0, 1.0};
//+
Point(63) = {-0.0364, -0.0342, 0, 1.0};
//+
Point(64) = {-0.0342, -0.0364, 0, 1.0};
//+
Point(65) = {-0.0319, -0.0385, 0, 1.0};
//+
Point(66) = {-0.0294, -0.0405, 0, 1.0};
//+
Point(67) = {-0.0268, -0.0422, 0, 1.0};
//+
Point(68) = {-0.0241, -0.0438, 0, 1.0};
//+
Point(69) = {-0.0213, -0.0452, 0, 1.0};
//+
Point(70) = {-0.0184, -0.0465, 0, 1.0};
//+
Point(71) = {-0.0155, -0.0476, 0, 1.0};
//+
Point(72) = {-0.0124, -0.0484, 0, 1.0};
//+
Point(73) = {-0.0094, -0.0491, 0, 1.0};
//+
Point(74) = {-0.0063, -0.0496, 0, 1.0};
//+
Point(75) = {-0.0031, -0.0499, 0, 1.0};
//+
Point(76) = {-0.0000, -0.0500, 0, 1.0};
//+
Point(77) = {0.0031, -0.0499, 0, 1.0};
//+
Point(78) = {0.0063, -0.0496, 0, 1.0};
//+
Point(79) = {0.0094, -0.0491, 0, 1.0};
//+
Point(80) = {0.0124, -0.0484, 0, 1.0};
//+
Point(81) = {0.0155, -0.0476, 0, 1.0};
//+
Point(82) = {0.0184, -0.0465, 0, 1.0};
//+
Point(83) = {0.0213, -0.0452, 0, 1.0};
//+
Point(84) = {0.0241, -0.0438, 0, 1.0};
//+
Point(85) = {0.0268, -0.0422, 0, 1.0};
//+
Point(86) = {0.0294, -0.0405, 0, 1.0};
//+
Point(87) = {0.0319, -0.0385, 0, 1.0};
//+
Point(88) = {0.0342, -0.0364, 0, 1.0};
//+
Point(89) = {0.0364, -0.0342, 0, 1.0};
//+
Point(90) = {0.0385, -0.0319, 0, 1.0};
//+
Point(91) = {0.0405, -0.0294, 0, 1.0};
//+
Point(92) = {0.0422, -0.0268, 0, 1.0};
//+
Point(93) = {0.0438, -0.0241, 0, 1.0};
//+
Point(94) = {0.0452, -0.0213, 0, 1.0};
//+
Point(95) = {0.0465, -0.0184, 0, 1.0};
//+
Point(96) = {0.0476, -0.0155, 0, 1.0};
//+
Point(97) = {0.0484, -0.0124, 0, 1.0};
//+
Point(98) = {0.0491, -0.0094, 0, 1.0};
//+
Point(99) = {0.0496, -0.0063, 0, 1.0};
//+
Point(100) = {0.0499, -0.0031, 0, 1.0};
//+
Point(101) = {0.0500, 0.0000, 10.0, 1.0};
//+
Point(102) = {0.0499, 0.0031, 10.0, 1.0};
//+
Point(103) = {0.0496, 0.0063, 10.0, 1.0};
//+
Point(104) = {0.0491, 0.0094, 10.0, 1.0};
//+
Point(105) = {0.0484, 0.0124, 10.0, 1.0};
//+
Point(106) = {0.0476, 0.0155, 10.0, 1.0};
//+
Point(107) = {0.0465, 0.0184, 10.0, 1.0};
//+
Point(108) = {0.0452, 0.0213, 10.0, 1.0};
//+
Point(109) = {0.0438, 0.0241, 10.0, 1.0};
//+
Point(110) = {0.0422, 0.0268, 10.0, 1.0};
//+
Point(111) = {0.0405, 0.0294, 10.0, 1.0};
//+
Point(112) = {0.0385, 0.0319, 10.0, 1.0};
//+
Point(113) = {0.0364, 0.0342, 10.0, 1.0};
//+
Point(114) = {0.0342, 0.0364, 10.0, 1.0};
//+
Point(115) = {0.0319, 0.0385, 10.0, 1.0};
//+
Point(116) = {0.0294, 0.0405, 10.0, 1.0};
//+
Point(117) = {0.0268, 0.0422, 10.0, 1.0};
//+
Point(118) = {0.0241, 0.0438, 10.0, 1.0};
//+
Point(119) = {0.0213, 0.0452, 10.0, 1.0};
//+
Point(120) = {0.0184, 0.0465, 10.0, 1.0};
//+
Point(121) = {0.0155, 0.0476, 10.0, 1.0};
//+
Point(122) = {0.0124, 0.0484, 10.0, 1.0};
//+
Point(123) = {0.0094, 0.0491, 10.0, 1.0};
//+
Point(124) = {0.0063, 0.0496, 10.0, 1.0};
//+
Point(125) = {0.0031, 0.0499, 10.0, 1.0};
//+
Point(126) = {-0.0000, 0.0500, 10.0, 1.0};
//+
Point(127) = {-0.0031, 0.0499, 10.0, 1.0};
//+
Point(128) = {-0.0063, 0.0496, 10.0, 1.0};
//+
Point(129) = {-0.0094, 0.0491, 10.0, 1.0};
//+
Point(130) = {-0.0124, 0.0484, 10.0, 1.0};
//+
Point(131) = {-0.0155, 0.0476, 10.0, 1.0};
//+
Point(132) = {-0.0184, 0.0465, 10.0, 1.0};
//+
Point(133) = {-0.0213, 0.0452, 10.0, 1.0};
//+
Point(134) = {-0.0241, 0.0438, 10.0, 1.0};
//+
Point(135) = {-0.0268, 0.0422, 10.0, 1.0};
//+
Point(136) = {-0.0294, 0.0405, 10.0, 1.0};
//+
Point(137) = {-0.0319, 0.0385, 10.0, 1.0};
//+
Point(138) = {-0.0342, 0.0364, 10.0, 1.0};
//+
Point(139) = {-0.0364, 0.0342, 10.0, 1.0};
//+
Point(140) = {-0.0385, 0.0319, 10.0, 1.0};
//+
Point(141) = {-0.0405, 0.0294, 10.0, 1.0};
//+
Point(142) = {-0.0422, 0.0268, 10.0, 1.0};
//+
Point(143) = {-0.0438, 0.0241, 10.0, 1.0};
//+
Point(144) = {-0.0452, 0.0213, 10.0, 1.0};
//+
Point(145) = {-0.0465, 0.0184, 10.0, 1.0};
//+
Point(146) = {-0.0476, 0.0155, 10.0, 1.0};
//+
Point(147) = {-0.0484, 0.0124, 10.0, 1.0};
//+
Point(148) = {-0.0491, 0.0094, 10.0, 1.0};
//+
Point(149) = {-0.0496, 0.0063, 10.0, 1.0};
//+
Point(150) = {-0.0499, 0.0031, 10.0, 1.0};
//+
Point(151) = {-0.0500, 0.0000, 10.0, 1.0};
//+
Point(152) = {-0.0499, -0.0031, 10.0, 1.0};
//+
Point(153) = {-0.0496, -0.0063, 10.0, 1.0};
//+
Point(154) = {-0.0491, -0.0094, 10.0, 1.0};
//+
Point(155) = {-0.0484, -0.0124, 10.0, 1.0};
//+
Point(156) = {-0.0476, -0.0155, 10.0, 1.0};
//+
Point(157) = {-0.0465, -0.0184, 10.0, 1.0};
//+
Point(158) = {-0.0452, -0.0213, 10.0, 1.0};
//+
Point(159) = {-0.0438, -0.0241, 10.0, 1.0};
//+
Point(160) = {-0.0422, -0.0268, 10.0, 1.0};
//+
Point(161) = {-0.0405, -0.0294, 10.0, 1.0};
//+
Point(162) = {-0.0385, -0.0319, 10.0, 1.0};
//+
Point(163) = {-0.0364, -0.0342, 10.0, 1.0};
//+
Point(164) = {-0.0342, -0.0364, 10.0, 1.0};
//+
Point(165) = {-0.0319, -0.0385, 10.0, 1.0};
//+
Point(166) = {-0.0294, -0.0405, 10.0, 1.0};
//+
Point(167) = {-0.0268, -0.0422, 10.0, 1.0};
//+
Point(168) = {-0.0241, -0.0438, 10.0, 1.0};
//+
Point(169) = {-0.0213, -0.0452, 10.0, 1.0};
//+
Point(170) = {-0.0184, -0.0465, 10.0, 1.0};
//+
Point(171) = {-0.0155, -0.0476, 10.0, 1.0};
//+
Point(172) = {-0.0124, -0.0484, 10.0, 1.0};
//+
Point(173) = {-0.0094, -0.0491, 10.0, 1.0};
//+
Point(174) = {-0.0063, -0.0496, 10.0, 1.0};
//+
Point(175) = {-0.0031, -0.0499, 10.0, 1.0};
//+
Point(176) = {0.0000, -0.0500, 10.0, 1.0};
//+
Point(177) = {0.0031, -0.0499, 10.0, 1.0};
//+
Point(178) = {0.0063, -0.0496, 10.0, 1.0};
//+
Point(179) = {0.0094, -0.0491, 10.0, 1.0};
//+
Point(180) = {0.0124, -0.0484, 10.0, 1.0};
//+
Point(181) = {0.0155, -0.0476, 10.0, 1.0};
//+
Point(182) = {0.0184, -0.0465, 10.0, 1.0};
//+
Point(183) = {0.0213, -0.0452, 10.0, 1.0};
//+
Point(184) = {0.0241, -0.0438, 10.0, 1.0};
//+
Point(185) = {0.0268, -0.0422, 10.0, 1.0};
//+
Point(186) = {0.0294, -0.0405, 10.0, 1.0};
//+
Point(187) = {0.0319, -0.0385, 10.0, 1.0};
//+
Point(188) = {0.0342, -0.0364, 10.0, 1.0};
//+
Point(189) = {0.0364, -0.0342, 10.0, 1.0};
//+
Point(190) = {0.0385, -0.0319, 10.0, 1.0};
//+
Point(191) = {0.0405, -0.0294, 10.0, 1.0};
//+
Point(192) = {0.0422, -0.0268, 10.0, 1.0};
//+
Point(193) = {0.0438, -0.0241, 10.0, 1.0};
//+
Point(194) = {0.0452, -0.0213, 10.0, 1.0};
//+
Point(195) = {0.0465, -0.0184, 10.0, 1.0};
//+
Point(196) = {0.0476, -0.0155, 10.0, 1.0};
//+
Point(197) = {0.0484, -0.0124, 10.0, 1.0};
//+
Point(198) = {0.0491, -0.0094, 10.0, 1.0};
//+
Point(199) = {0.0496, -0.0063, 10.0, 1.0};
//+
Point(200) = {0.0499, -0.0031, 10.0, 1.0};
//+
Line(1) = {1, 2};
//+
Line(2) = {2, 3};
//+
Line(3) = {3, 4};
//+
Line(4) = {4, 5};
//+
Line(5) = {5, 6};
//+
Line(6) = {6, 7};
//+
Line(7) = {7, 8};
//+
Line(8) = {8, 9};
//+
Line(9) = {9, 10};
//+
Line(10) = {10, 11};
//+
Line(11) = {11, 12};
//+
Line(12) = {12, 13};
//+
Line(13) = {13, 14};
//+
Line(14) = {14, 15};
//+
Line(15) = {15, 16};
//+
Line(16) = {16, 17};
//+
Line(17) = {17, 18};
//+
Line(18) = {18, 19};
//+
Line(19) = {19, 20};
//+
Line(20) = {20, 21};
//+
Line(21) = {21, 22};
//+
Line(22) = {22, 23};
//+
Line(23) = {23, 24};
//+
Line(24) = {24, 25};
//+
Line(25) = {25, 26};
//+
Line(26) = {26, 27};
//+
Line(27) = {27, 28};
//+
Line(28) = {28, 29};
//+
Line(29) = {29, 30};
//+
Line(30) = {30, 31};
//+
Line(31) = {31, 32};
//+
Line(32) = {32, 33};
//+
Line(33) = {33, 34};
//+
Line(34) = {34, 35};
//+
Line(35) = {35, 36};
//+
Line(36) = {36, 37};
//+
Line(37) = {37, 38};
//+
Line(38) = {38, 39};
//+
Line(39) = {39, 40};
//+
Line(40) = {40, 41};
//+
Line(41) = {41, 42};
//+
Line(42) = {42, 43};
//+
Line(43) = {43, 44};
//+
Line(44) = {44, 45};
//+
Line(45) = {45, 46};
//+
Line(46) = {46, 47};
//+
Line(47) = {47, 48};
//+
Line(48) = {48, 49};
//+
Line(49) = {49, 50};
//+
Line(50) = {50, 51};
//+
Line(51) = {51, 52};
//+
Line(52) = {52, 53};
//+
Line(53) = {53, 54};
//+
Line(54) = {54, 55};
//+
Line(55) = {55, 56};
//+
Line(56) = {56, 57};
//+
Line(57) = {57, 58};
//+
Line(58) = {58, 59};
//+
Line(59) = {59, 60};
//+
Line(60) = {60, 61};
//+
Line(61) = {61, 62};
//+
Line(62) = {62, 63};
//+
Line(63) = {63, 64};
//+
Line(64) = {64, 65};
//+
Line(65) = {65, 66};
//+
Line(66) = {66, 67};
//+
Line(67) = {67, 68};
//+
Line(68) = {68, 69};
//+
Line(69) = {69, 70};
//+
Line(70) = {70, 71};
//+
Line(71) = {71, 72};
//+
Line(72) = {72, 73};
//+
Line(73) = {73, 74};
//+
Line(74) = {74, 75};
//+
Line(75) = {75, 76};
//+
Line(76) = {76, 77};
//+
Line(77) = {77, 78};
//+
Line(78) = {78, 79};
//+
Line(79) = {79, 80};
//+
Line(80) = {80, 81};
//+
Line(81) = {81, 82};
//+
Line(82) = {82, 83};
//+
Line(83) = {83, 84};
//+
Line(84) = {84, 85};
//+
Line(85) = {85, 86};
//+
Line(86) = {86, 87};
//+
Line(87) = {87, 88};
//+
Line(88) = {88, 89};
//+
Line(89) = {89, 90};
//+
Line(90) = {90, 91};
//+
Line(91) = {91, 92};
//+
Line(92) = {92, 93};
//+
Line(93) = {93, 94};
//+
Line(94) = {94, 95};
//+
Line(95) = {95, 96};
//+
Line(96) = {96, 97};
//+
Line(97) = {97, 98};
//+
Line(98) = {98, 99};
//+
Line(99) = {99, 100};
//+
Line(100) = {100, 1};
//+
Line(101) = {101, 102};
//+
Line(102) = {102, 103};
//+
Line(103) = {103, 104};
//+
Line(104) = {104, 105};
//+
Line(105) = {105, 106};
//+
Line(106) = {106, 107};
//+
Line(107) = {107, 108};
//+
Line(108) = {108, 109};
//+
Line(109) = {109, 110};
//+
Line(110) = {110, 111};
//+
Line(111) = {111, 112};
//+
Line(112) = {112, 113};
//+
Line(113) = {113, 114};
//+
Line(114) = {114, 115};
//+
Line(115) = {115, 116};
//+
Line(116) = {116, 117};
//+
Line(117) = {117, 118};
//+
Line(118) = {118, 119};
//+
Line(119) = {119, 120};
//+
Line(120) = {120, 121};
//+
Line(121) = {121, 122};
//+
Line(122) = {122, 123};
//+
Line(123) = {123, 124};
//+
Line(124) = {124, 125};
//+
Line(125) = {125, 126};
//+
Line(126) = {126, 127};
//+
Line(127) = {127, 128};
//+
Line(128) = {128, 129};
//+
Line(129) = {129, 130};
//+
Line(130) = {130, 131};
//+
Line(131) = {131, 132};
//+
Line(132) = {132, 133};
//+
Line(133) = {133, 134};
//+
Line(134) = {134, 135};
//+
Line(135) = {135, 136};
//+
Line(136) = {136, 137};
//+
Line(137) = {137, 138};
//+
Line(138) = {138, 139};
//+
Line(139) = {139, 140};
//+
Line(140) = {140, 141};
//+
Line(141) = {141, 142};
//+
Line(142) = {142, 143};
//+
Line(143) = {143, 144};
//+
Line(144) = {144, 145};
//+
Line(145) = {145, 146};
//+
Line(146) = {146, 147};
//+
Line(147) = {147, 148};
//+
Line(148) = {148, 149};
//+
Line(149) = {149, 150};
//+
Line(150) = {150, 151};
//+
Line(151) = {151, 152};
//+
Line(152) = {152, 153};
//+
Line(153) = {153, 154};
//+
Line(154) = {154, 155};
//+
Line(155) = {155, 156};
//+
Line(156) = {156, 157};
//+
Line(157) = {157, 158};
//+
Line(158) = {158, 159};
//+
Line(159) = {159, 160};
//+
Line(160) = {160, 161};
//+
Line(161) = {161, 162};
//+
Line(162) = {162, 163};
//+
Line(163) = {163, 164};
//+
Line(164) = {164, 165};
//+
Line(165) = {165, 166};
//+
Line(166) = {166, 167};
//+
Line(167) = {167, 168};
//+
Line(168) = {168, 169};
//+
Line(169) = {169, 170};
//+
Line(170) = {170, 171};
//+
Line(171) = {171, 172};
//+
Line(172) = {172, 173};
//+
Line(173) = {173, 174};
//+
Line(174) = {174, 175};
//+
Line(175) = {175, 176};
//+
Line(176) = {176, 177};
//+
Line(177) = {177, 178};
//+
Line(178) = {178, 179};
//+
Line(179) = {179, 180};
//+
Line(180) = {180, 181};
//+
Line(181) = {181, 182};
//+
Line(182) = {182, 183};
//+
Line(183) = {183, 184};
//+
Line(184) = {184, 185};
//+
Line(185) = {185, 186};
//+
Line(186) = {186, 187};
//+
Line(187) = {187, 188};
//+
Line(188) = {188, 189};
//+
Line(189) = {189, 190};
//+
Line(190) = {190, 191};
//+
Line(191) = {191, 192};
//+
Line(192) = {192, 193};
//+
Line(193) = {193, 194};
//+
Line(194) = {194, 195};
//+
Line(195) = {195, 196};
//+
Line(196) = {196, 197};
//+
Line(197) = {197, 198};
//+
Line(198) = {198, 199};
//+
Line(199) = {199, 200};
//+
Line(200) = {200, 101};
//+
//+
Curve Loop(1) = {35, 36, 37, 38, 39, 40, 41, 42, 43, 44, 45, 46, 47, 48, 49, 50, 51, 52, 53, 54, 55, 56, 57, 58, 59, 60, 61, 62, 63, 64, 65, 66, 67, 68, 69, 70, 71, 72, 73, 74, 75, 76, 77, 78, 79, 80, 81, 82, 83, 84, 85, 86, 87, 88, 89, 90, 91, 92, 93, 94, 95, 96, 97, 98, 99, 100, 1, 2, 3, 4, 5, 6, 7, 8, 9, 10, 11, 12, 13, 14, 15, 16, 17, 18, 19, 20, 21, 22, 23, 24, 25, 26, 27, 28, 29, 30, 31, 32, 33, 34};
//+
Plane Surface(1) = {1};
//+
Curve Loop(2) = {133, 134, 135, 136, 137, 138, 139, 140, 141, 142, 143, 144, 145, 146, 147, 148, 149, 150, 151, 152, 153, 154, 155, 156, 157, 158, 159, 160, 161, 162, 163, 164, 165, 166, 167, 168, 169, 170, 171, 172, 173, 174, 175, 176, 177, 178, 179, 180, 181, 182, 183, 184, 185, 186, 187, 188, 189, 190, 191, 192, 193, 194, 195, 196, 197, 198, 199, 200, 101, 102, 103, 104, 105, 106, 107, 108, 109, 110, 111, 112, 113, 114, 115, 116, 117, 118, 119, 120, 121, 122, 123, 124, 125, 126, 127, 128, 129, 130, 131, 132};
//+
Plane Surface(2) = {2};
//+
Line(201) = {1, 101};
//+
Line(202) = {2, 102};
//+
Line(203) = {3, 103};
//+
Line(204) = {4, 104};
//+
Line(205) = {5, 105};
//+
Line(206) = {6, 106};
//+
Line(207) = {7, 107};
//+
Line(208) = {8, 108};
//+
Line(209) = {9, 109};
//+
Line(210) = {10, 110};
//+
Line(211) = {11, 111};
//+
Line(212) = {12, 112};
//+
Line(213) = {13, 113};
//+
Line(214) = {14, 114};
//+
Line(215) = {15, 115};
//+
Line(216) = {16, 116};
//+
Line(217) = {17, 117};
//+
Line(218) = {18, 118};
//+
Line(219) = {19, 119};
//+
Line(220) = {20, 120};
//+
Line(221) = {21, 121};
//+
Line(222) = {22, 122};
//+
Line(223) = {23, 123};
//+
Line(224) = {24, 124};
//+
Line(225) = {25, 125};
//+
Line(226) = {26, 126};
//+
Line(227) = {27, 127};
//+
Line(228) = {28, 128};
//+
Line(229) = {29, 129};
//+
Line(230) = {30, 130};
//+
Line(231) = {31, 131};
//+
Line(232) = {32, 132};
//+
Line(233) = {33, 133};
//+
Line(234) = {34, 134};
//+
Line(235) = {35, 135};
//+
Line(236) = {36, 136};
//+
Line(237) = {37, 137};
//+
Line(238) = {38, 138};
//+
Line(239) = {39, 139};
//+
Line(240) = {40, 140};
//+
Line(241) = {41, 141};
//+
Line(242) = {42, 142};
//+
Line(243) = {43, 143};
//+
Line(244) = {44, 144};
//+
Line(245) = {45, 145};
//+
Line(246) = {46, 146};
//+
Line(247) = {47, 147};
//+
Line(248) = {48, 148};
//+
Line(249) = {49, 149};
//+
Line(250) = {50, 150};
//+
Line(251) = {51, 151};
//+
Line(252) = {52, 152};
//+
Line(253) = {53, 153};
//+
Line(254) = {54, 154};
//+
Line(255) = {55, 155};
//+
Line(256) = {56, 156};
//+
Line(257) = {57, 157};
//+
Line(258) = {58, 158};
//+
Line(259) = {59, 159};
//+
Line(260) = {60, 160};
//+
Line(261) = {61, 161};
//+
Line(262) = {62, 162};
//+
Line(263) = {63, 163};
//+
Line(264) = {64, 164};
//+
Line(265) = {65, 165};
//+
Line(266) = {66, 166};
//+
Line(267) = {67, 167};
//+
Line(268) = {68, 168};
//+
Line(269) = {69, 169};
//+
Line(270) = {70, 170};
//+
Line(271) = {71, 171};
//+
Line(272) = {72, 172};
//+
Line(273) = {73, 173};
//+
Line(274) = {74, 174};
//+
Line(275) = {75, 175};
//+
Line(276) = {76, 176};
//+
Line(277) = {77, 177};
//+
Line(278) = {78, 178};
//+
Line(279) = {79, 179};
//+
Line(280) = {80, 180};
//+
Line(281) = {81, 181};
//+
Line(282) = {82, 182};
//+
Line(283) = {83, 183};
//+
Line(284) = {84, 184};
//+
Line(285) = {85, 185};
//+
Line(286) = {86, 186};
//+
Line(287) = {87, 187};
//+
Line(288) = {88, 188};
//+
Line(289) = {89, 189};
//+
Line(290) = {90, 190};
//+
Line(291) = {91, 191};
//+
Line(292) = {92, 192};
//+
Line(293) = {93, 193};
//+
Line(294) = {94, 194};
//+
Line(295) = {95, 195};
//+
Line(296) = {96, 196};
//+
Line(297) = {97, 197};
//+
Line(298) = {98, 198};
//+
Line(299) = {99, 199};
//+
Line(300) = {100, 200};
//+
Curve Loop(3) = {1, 202, -101, -201};
//+
Curve Loop(4) = {2, 203, -102, -202};
//+
Curve Loop(5) = {3, 204, -103, -203};
//+
Curve Loop(6) = {4, 205, -104, -204};
//+
Curve Loop(7) = {5, 206, -105, -205};
//+
Curve Loop(8) = {6, 207, -106, -206};
//+
Curve Loop(9) = {7, 208, -107, -207};
//+
Curve Loop(10) = {8, 209, -108, -208};
//+
Curve Loop(11) = {9, 210, -109, -209};
//+
Curve Loop(12) = {10, 211, -110, -210};
//+
Curve Loop(13) = {11, 212, -111, -211};
//+
Curve Loop(14) = {12, 213, -112, -212};
//+
Curve Loop(15) = {13, 214, -113, -213};
//+
Curve Loop(16) = {14, 215, -114, -214};
//+
Curve Loop(17) = {15, 216, -115, -215};
//+
Curve Loop(18) = {16, 217, -116, -216};
//+
Curve Loop(19) = {17, 218, -117, -217};
//+
Curve Loop(20) = {18, 219, -118, -218};
//+
Curve Loop(21) = {19, 220, -119, -219};
//+
Curve Loop(22) = {20, 221, -120, -220};
//+
Curve Loop(23) = {21, 222, -121, -221};
//+
Curve Loop(24) = {22, 223, -122, -222};
//+
Curve Loop(25) = {23, 224, -123, -223};
//+
Curve Loop(26) = {24, 225, -124, -224};
//+
Curve Loop(27) = {25, 226, -125, -225};
//+
Curve Loop(28) = {26, 227, -126, -226};
//+
Curve Loop(29) = {27, 228, -127, -227};
//+
Curve Loop(30) = {28, 229, -128, -228};
//+
Curve Loop(31) = {29, 230, -129, -229};
//+
Curve Loop(32) = {30, 231, -130, -230};
//+
Curve Loop(33) = {31, 232, -131, -231};
//+
Curve Loop(34) = {32, 233, -132, -232};
//+
Curve Loop(35) = {33, 234, -133, -233};
//+
Curve Loop(36) = {34, 235, -134, -234};
//+
Curve Loop(37) = {35, 236, -135, -235};
//+
Curve Loop(38) = {36, 237, -136, -236};
//+
Curve Loop(39) = {37, 238, -137, -237};
//+
Curve Loop(40) = {38, 239, -138, -238};
//+
Curve Loop(41) = {39, 240, -139, -239};
//+
Curve Loop(42) = {40, 241, -140, -240};
//+
Curve Loop(43) = {41, 242, -141, -241};
//+
Curve Loop(44) = {42, 243, -142, -242};
//+
Curve Loop(45) = {43, 244, -143, -243};
//+
Curve Loop(46) = {44, 245, -144, -244};
//+
Curve Loop(47) = {45, 246, -145, -245};
//+
Curve Loop(48) = {46, 247, -146, -246};
//+
Curve Loop(49) = {47, 248, -147, -247};
//+
Curve Loop(50) = {48, 249, -148, -248};
//+
Curve Loop(51) = {49, 250, -149, -249};
//+
Curve Loop(52) = {50, 251, -150, -250};
//+
Curve Loop(53) = {51, 252, -151, -251};
//+
Curve Loop(54) = {52, 253, -152, -252};
//+
Curve Loop(55) = {53, 254, -153, -253};
//+
Curve Loop(56) = {54, 255, -154, -254};
//+
Curve Loop(57) = {55, 256, -155, -255};
//+
Curve Loop(58) = {56, 257, -156, -256};
//+
Curve Loop(59) = {57, 258, -157, -257};
//+
Curve Loop(60) = {58, 259, -158, -258};
//+
Curve Loop(61) = {59, 260, -159, -259};
//+
Curve Loop(62) = {60, 261, -160, -260};
//+
Curve Loop(63) = {61, 262, -161, -261};
//+
Curve Loop(64) = {62, 263, -162, -262};
//+
Curve Loop(65) = {63, 264, -163, -263};
//+
Curve Loop(66) = {64, 265, -164, -264};
//+
Curve Loop(67) = {65, 266, -165, -265};
//+
Curve Loop(68) = {66, 267, -166, -266};
//+
Curve Loop(69) = {67, 268, -167, -267};
//+
Curve Loop(70) = {68, 269, -168, -268};
//+
Curve Loop(71) = {69, 270, -169, -269};
//+
Curve Loop(72) = {70, 271, -170, -270};
//+
Curve Loop(73) = {71, 272, -171, -271};
//+
Curve Loop(74) = {72, 273, -172, -272};
//+
Curve Loop(75) = {73, 274, -173, -273};
//+
Curve Loop(76) = {74, 275, -174, -274};
//+
Curve Loop(77) = {75, 276, -175, -275};
//+
Curve Loop(78) = {76, 277, -176, -276};
//+
Curve Loop(79) = {77, 278, -177, -277};
//+
Curve Loop(80) = {78, 279, -178, -278};
//+
Curve Loop(81) = {79, 280, -179, -279};
//+
Curve Loop(82) = {80, 281, -180, -280};
//+
Curve Loop(83) = {81, 282, -181, -281};
//+
Curve Loop(84) = {82, 283, -182, -282};
//+
Curve Loop(85) = {83, 284, -183, -283};
//+
Curve Loop(86) = {84, 285, -184, -284};
//+
Curve Loop(87) = {85, 286, -185, -285};
//+
Curve Loop(88) = {86, 287, -186, -286};
//+
Curve Loop(89) = {87, 288, -187, -287};
//+
Curve Loop(90) = {88, 289, -188, -288};
//+
Curve Loop(91) = {89, 290, -189, -289};
//+
Curve Loop(92) = {90, 291, -190, -290};
//+
Curve Loop(93) = {91, 292, -191, -291};
//+
Curve Loop(94) = {92, 293, -192, -292};
//+
Curve Loop(95) = {93, 294, -193, -293};
//+
Curve Loop(96) = {94, 295, -194, -294};
//+
Curve Loop(97) = {95, 296, -195, -295};
//+
Curve Loop(98) = {96, 297, -196, -296};
//+
Curve Loop(99) = {97, 298, -197, -297};
//+
Curve Loop(100) = {98, 299, -198, -298};
//+
Curve Loop(101) = {99, 300, -199, -299};
//+
Curve Loop(102) = {100, 201, -200, -300};
//+
Plane Surface(3) = {3};
//+
Plane Surface(4) = {4};
//+
Plane Surface(5) = {5};
//+
Plane Surface(6) = {6};
//+
Plane Surface(7) = {7};
//+
Plane Surface(8) = {8};
//+
Plane Surface(9) = {9};
//+
Plane Surface(10) = {10};
//+
Plane Surface(11) = {11};
//+
Plane Surface(12) = {12};
//+
Plane Surface(13) = {13};
//+
Plane Surface(14) = {14};
//+
Plane Surface(15) = {15};
//+
Plane Surface(16) = {16};
//+
Plane Surface(17) = {17};
//+
Plane Surface(18) = {18};
//+
Plane Surface(19) = {19};
//+
Plane Surface(20) = {20};
//+
Plane Surface(21) = {21};
//+
Plane Surface(22) = {22};
//+
Plane Surface(23) = {23};
//+
Plane Surface(24) = {24};
//+
Plane Surface(25) = {25};
//+
Plane Surface(26) = {26};
//+
Plane Surface(27) = {27};
//+
Plane Surface(28) = {28};
//+
Plane Surface(29) = {29};
//+
Plane Surface(30) = {30};
//+
Plane Surface(31) = {31};
//+
Plane Surface(32) = {32};
//+
Plane Surface(33) = {33};
//+
Plane Surface(34) = {34};
//+
Plane Surface(35) = {35};
//+
Plane Surface(36) = {36};
//+
Plane Surface(37) = {37};
//+
Plane Surface(38) = {38};
//+
Plane Surface(39) = {39};
//+
Plane Surface(40) = {40};
//+
Plane Surface(41) = {41};
//+
Plane Surface(42) = {42};
//+
Plane Surface(43) = {43};
//+
Plane Surface(44) = {44};
//+
Plane Surface(45) = {45};
//+
Plane Surface(46) = {46};
//+
Plane Surface(47) = {47};
//+
Plane Surface(48) = {48};
//+
Plane Surface(49) = {49};
//+
Plane Surface(50) = {50};
//+
Plane Surface(51) = {51};
//+
Plane Surface(52) = {52};
//+
Plane Surface(53) = {53};
//+
Plane Surface(54) = {54};
//+
Plane Surface(55) = {55};
//+
Plane Surface(56) = {56};
//+
Plane Surface(57) = {57};
//+
Plane Surface(58) = {58};
//+
Plane Surface(59) = {59};
//+
Plane Surface(60) = {60};
//+
Plane Surface(61) = {61};
//+
Plane Surface(62) = {62};
//+
Plane Surface(63) = {63};
//+
Plane Surface(64) = {64};
//+
Plane Surface(65) = {65};
//+
Plane Surface(66) = {66};
//+
Plane Surface(67) = {67};
//+
Plane Surface(68) = {68};
//+
Plane Surface(69) = {69};
//+
Plane Surface(70) = {70};
//+
Plane Surface(71) = {71};
//+
Plane Surface(72) = {72};
//+
Plane Surface(73) = {73};
//+
Plane Surface(74) = {74};
//+
Plane Surface(75) = {75};
//+
Plane Surface(76) = {76};
//+
Plane Surface(77) = {77};
//+
Plane Surface(78) = {78};
//+
Plane Surface(79) = {79};
//+
Plane Surface(80) = {80};
//+
Plane Surface(81) = {81};
//+
Plane Surface(82) = {82};
//+
Plane Surface(83) = {83};
//+
Plane Surface(84) = {84};
//+
Plane Surface(85) = {85};
//+
Plane Surface(86) = {86};
//+
Plane Surface(87) = {87};
//+
Plane Surface(88) = {88};
//+
Plane Surface(89) = {89};
//+
Plane Surface(90) = {90};
//+
Plane Surface(91) = {91};
//+
Plane Surface(92) = {92};
//+
Plane Surface(93) = {93};
//+
Plane Surface(94) = {94};
//+
Plane Surface(95) = {95};
//+
Plane Surface(96) = {96};
//+
Plane Surface(97) = {97};
//+
Plane Surface(98) = {98};
//+
Plane Surface(99) = {99};
//+
Plane Surface(100) = {100};
//+
Plane Surface(101) = {101};
//+
Plane Surface(102) = {102};
//+
Surface Loop(1) = {65, 1, 37, 38, 39, 40, 41, 42, 43, 44, 45, 46, 47, 48, 49, 50, 51, 52, 53, 54, 55, 56, 57, 58, 59, 60, 61, 62, 63, 64, 2, 35, 36, 34, 33, 32, 31, 30, 29, 28, 27, 26, 25, 24, 23, 22, 21, 20, 19, 18, 17, 16, 15, 14, 13, 12, 11, 10, 9, 8, 7, 6, 5, 4, 3, 102, 101, 100, 99, 98, 97, 96, 95, 94, 93, 92, 91, 90, 89, 88, 87, 86, 85, 84, 83, 82, 81, 80, 79, 78, 77, 76, 75, 74, 73, 72, 71, 70, 69, 68, 67, 66};
//+
Volume(1) = {1};
//+
Physical Volume("wire") = {1};
//+
Point(201) = {1.0, 1.0, 0, 1.0};
//+
Point(202) = {1.0, -1.0, 0, 1.0};
//+
Point(203) = {-1.0, -1.0, 0, 1.0};
//+
Point(204) = {-1.0, 1.0, 0, 1.0};
//+
Point(205) = {1.0, 1.0, 10.0, 1.0};
//+
Point(206) = {1.0, -1.0, 10.0, 1.0};
//+
Point(207) = {-1.0, -1.0, 10.0, 1.0};
//+
Point(208) = {-1.0, 1.0, 10.0, 1.0};
//+
Line(301) = {201, 202};
//+
Line(302) = {202, 203};
//+
Line(303) = {203, 204};
//+
Line(304) = {204, 201};
//+
Line(305) = {205, 206};
//+
Line(306) = {206, 207};
//+
Line(307) = {207, 208};
//+
Line(308) = {208, 205};
//+
Line(309) = {201, 205};
//+
Line(310) = {202, 206};
//+
Line(311) = {203, 207};
//+
Line(312) = {204, 208};
//+
Curve Loop(103) = {305, -310, -301, 309};
//+
Curve Loop(104) = {-312, 304, 309, -308};
//+
Curve Loop(105) = {307, -312, -303, 311};
//+
Curve Loop(106) = {-311, -302, 310, 306};
//+
Curve Loop(107) = {307, 308, 305, 306};
//+
Curve Loop(108) = {302, 303, 304, 301};
//+
Plane Surface(103) = {103};
//+
Plane Surface(104) = {104};
//+
Plane Surface(105) = {105};
//+
Plane Surface(106) = {106};
//+
Plane Surface(107) = {2, 107};
//+
Plane Surface(108) = {1, 108};
//+
Physical Surface("wire_sup") = {2, 58, 59, 60, 61, 62, 63, 64, 65, 66, 67, 68, 69, 70, 71, 72, 73, 74, 75, 76, 77, 78, 79, 80, 81, 82, 83, 84, 85, 86, 87, 88, 89, 90, 91, 92, 93, 94, 95, 96, 97, 98, 99, 100, 101, 102, 3, 4, 5, 6, 7, 8, 9, 10, 11, 12, 13, 14, 15, 16, 17, 18, 19, 20, 21, 22, 23, 24, 25, 26, 27, 28, 29, 30, 31, 32, 33, 34, 35, 36, 37, 38, 39, 40, 41, 42, 43, 44, 45, 46, 47, 48, 49, 50, 51, 52, 53, 54, 55, 56, 57, 1};
//+
Physical Surface("boundary") = {106, 103, 104, 108, 105, 107};
//+
Surface Loop(2) = {106, 105, 107, 103, 108, 104, 77, 78, 79, 80, 81, 82, 83, 84, 85, 86, 87, 88, 89, 90, 91, 92, 93, 94, 95, 96, 97, 98, 99, 100, 101, 102, 3, 4, 5, 6, 7, 8, 9, 10, 11, 12, 13, 14, 15, 16, 17, 18, 19, 20, 21, 22, 23, 24, 25, 26, 27, 28, 29, 30, 31, 32, 33, 34, 35, 36, 37, 38, 39, 40, 41, 42, 43, 44, 45, 46, 47, 48, 49, 50, 51, 52, 53, 54, 55, 56, 57, 58, 59, 60, 61, 62, 63, 64, 65, 66, 67, 68, 69, 70, 71, 72, 73, 74, 75, 76};
//+
Volume(2) = {2};
//+
Physical Volume("mean") = {2};
